<!-- icon666.com - MILLIONS vector ICONS FREE --><svg viewBox="0 0 64 64" xmlns="http://www.w3.org/2000/svg"><g id="Layer_26" data-name="Layer 26"><path d="m32 6.94a25.06 25.06 0 1 0 25.06 25.06 25.06 25.06 0 0 0 -25.06-25.06zm15.33 27.89a4 4 0 0 1 -2.83 1.17h-8.5v8.5a4 4 0 1 1 -8 0v-8.5h-8.5a4 4 0 0 1 0-8h8.5v-8.5a4 4 0 0 1 8 0v8.5h8.5a4 4 0 0 1 2.83 6.83z" fill="#78b9eb"></path><g fill="#006df0"><path d="m32 5a27 27 0 1 0 27 27 27 27 0 0 0 -27-27zm0 52a25 25 0 1 1 25-25 25 25 0 0 1 -25 25z"></path><path d="m44.5 28h-8.5v-8.5a4 4 0 0 0 -8 0v8.5h-8.5a4 4 0 0 0 0 8h8.5v8.5a4 4 0 0 0 8 0v-8.5h8.5a4 4 0 0 0 0-8zm1.41 5.41a2 2 0 0 1 -1.41.59h-9.5a1 1 0 0 0 -1 1v9.5a2 2 0 0 1 -2 2 2 2 0 0 1 -2-2v-9.5a1 1 0 0 0 -1-1h-9.5a2 2 0 0 1 0-4h9.5a1 1 0 0 0 1-1v-9.5a2 2 0 0 1 4 0v9.5a1 1 0 0 0 1 1h9.5a2 2 0 0 1 2 2 2 2 0 0 1 -.59 1.41z"></path></g></g></svg>